<svg id="Layer_3" data-name="Layer 3" xmlns="http://www.w3.org/2000/svg" viewBox="0 0 24 24"><path d="M19,21H5.10405a1.99951,1.99951,0,0,1-2-1.985l-.104-14a2.00015,2.00015,0,0,1,2-2.015H16.172a1.9989,1.9989,0,0,1,1.414.586l2.828,2.828A2.00064,2.00064,0,0,1,21,7.828V19A1.99945,1.99945,0,0,1,19,21Z" fill="none" stroke="#323232" stroke-linecap="round" stroke-linejoin="round" stroke-width="1.5"/><path d="M15.993,3V7a1.00036,1.00036,0,0,1-1,1h-6a1.00036,1.00036,0,0,1-1-1V3" fill="none" stroke="#323232" stroke-linecap="round" stroke-linejoin="round" stroke-width="1.5"/><circle cx="12" cy="14.5" r="2.5" fill="none" stroke="#323232" stroke-linecap="round" stroke-linejoin="round" stroke-width="1.5"/><path d="M0,0H24V24H0Z" fill="none"/></svg>