<svg xmlns="http://www.w3.org/2000/svg" viewBox="0 0 24 24"><defs><style>.a{fill:none;stroke:#323232;stroke-linecap:round;stroke-linejoin:round;stroke-width:1.5px;}</style></defs><path class="a" d="M3.42571,13.82853l1.00354-1.18105a1,1,0,0,0,0-1.295L3.4257,10.1714a1.7889,1.7889,0,0,1-.28949-1.8429h0A1.78888,1.78888,0,0,1,4.64406,7.23006l1.54479-.1255a1,1,0,0,0,.91574-.91574L7.23009,4.644A1.7889,1.7889,0,0,1,8.32852,3.13618h0a1.78887,1.78887,0,0,1,1.8429.2895l1.18106,1.00354a1,1,0,0,0,1.295,0l1.181-1.00354a1.78888,1.78888,0,0,1,1.8429-.2895h0A1.7889,1.7889,0,0,1,16.7699,4.644l.1255,1.54478a1,1,0,0,0,.91574.91574l1.54478.1255A1.78889,1.78889,0,0,1,20.86378,8.3285h0a1.7889,1.7889,0,0,1-.28949,1.8429l-1.00355,1.181a1,1,0,0,0,0,1.295l1.00358,1.1811a1.78888,1.78888,0,0,1,.28949,1.8429h0A1.78887,1.78887,0,0,1,19.356,16.76991l-1.54479.12551a1,1,0,0,0-.91573.91574l-.12551,1.54478a1.78887,1.78887,0,0,1-1.09843,1.50785h0a1.78888,1.78888,0,0,1-1.8429-.28949l-1.1811-1.00358a1,1,0,0,0-1.295,0l-1.18107,1.00355a1.78891,1.78891,0,0,1-1.84288.28951h0A1.7889,1.7889,0,0,1,7.23,19.3559l-.1255-1.54476a1,1,0,0,0-.91572-.91573l-1.54477-.12553a1.78889,1.78889,0,0,1-1.50783-1.09843h0A1.78887,1.78887,0,0,1,3.42571,13.82853Z"/><circle class="a" cx="12" cy="12" r="3.5"/></svg>