<svg id="Layer_3" data-name="Layer 3" xmlns="http://www.w3.org/2000/svg" viewBox="0 0 24 24"><title>space-rocket</title><path d="M17.09566,12.12347l-5.39675,4.3174a1,1,0,0,1-1.3318-.07376L7.63289,13.63289a1,1,0,0,1-.07376-1.3318l4.3174-5.39675A10.4031,10.4031,0,0,1,20,3h0a1,1,0,0,1,1,1h0A10.4031,10.4031,0,0,1,17.09566,12.12347Z" fill="none" stroke="#323232" stroke-linecap="round" stroke-linejoin="round" stroke-width="1.5"/><path d="M16,13v4.382a1,1,0,0,1-.55279.89442l-2.41593,1.208a1,1,0,0,1-1.39589-.5782L11,17" fill="none" stroke="#323232" stroke-linecap="round" stroke-linejoin="round" stroke-width="1.5"/><path d="M7,13l-1.90616-.63539a1,1,0,0,1-.5782-1.39589l1.208-2.41593A1,1,0,0,1,6.618,8H11" fill="none" stroke="#323232" stroke-linecap="round" stroke-linejoin="round" stroke-width="1.5"/><path d="M5.7501,20.58685,3,21l.41315-2.7501a2.05451,2.05451,0,0,1,1.72649-1.72649h0a2.05452,2.05452,0,0,1,2.337,2.337h0A2.05451,2.05451,0,0,1,5.7501,20.58685Z" fill="none" stroke="#323232" stroke-linecap="round" stroke-linejoin="round" stroke-width="1.5"/><rect width="24" height="24" fill="none"/></svg>