<?xml version="1.0" encoding="utf-8"?>
<!-- Generator: Adobe Illustrator 23.1.0, SVG Export Plug-In . SVG Version: 6.00 Build 0)  -->
<svg version="1.1" id="icons" xmlns="http://www.w3.org/2000/svg" xmlns:xlink="http://www.w3.org/1999/xlink" x="0px" y="0px"
	 width="24px" height="24px" viewBox="0 0 24 24" enable-background="new 0 0 24 24" xml:space="preserve">
<g>
	<path fill="none" d="M0,0h24v24H0V0z"/>
	<g>
		<path fill="none" stroke="#323232" stroke-width="1.5" stroke-linecap="round" stroke-linejoin="round" d="M9.225,6.452
			L9.225,6.452c0-1.532,1.242-2.775,2.775-2.775l0,0c1.532,0,2.775,1.242,2.775,2.775l0,0c0,1.532-1.242,2.775-2.775,2.775l0,0
			C10.467,9.225,9.225,7.983,9.225,6.452z"/>
		<path fill="none" stroke="#323232" stroke-width="1.5" stroke-linecap="round" stroke-linejoin="round" d="M2.5,17.548L2.5,17.548
			c0-1.532,1.242-2.775,2.775-2.775l0,0c1.532,0,2.775,1.242,2.775,2.775l0,0c-0.001,1.532-1.242,2.775-2.775,2.775l0,0
			C3.742,20.323,2.5,19.081,2.5,17.548z"/>
		<path fill="none" stroke="#323232" stroke-width="1.5" stroke-linecap="round" stroke-linejoin="round" d="M15.951,17.548
			L15.951,17.548c0-1.532,1.242-2.775,2.775-2.775l0,0c1.532,0,2.775,1.242,2.775,2.775l0,0c0,1.532-1.242,2.775-2.775,2.775l0,0
			C17.192,20.323,15.951,19.081,15.951,17.548z"/>
		
			<line fill="none" stroke="#323232" stroke-width="1.5" stroke-linecap="round" stroke-linejoin="round" x1="8.488" y1="11.922" x2="6.476" y2="15.059"/>
		
			<line fill="none" stroke="#323232" stroke-width="1.5" stroke-linecap="round" stroke-linejoin="round" x1="13.498" y1="8.785" x2="15.511" y2="11.922"/>
		
			<line fill="none" stroke="#323232" stroke-width="1.5" stroke-linecap="round" stroke-linejoin="round" x1="15.951" y1="17.548" x2="12" y2="17.548"/>
	</g>
</g>
</svg>
