<svg id="Layer_3" data-name="Layer 3" xmlns="http://www.w3.org/2000/svg" viewBox="0 0 24 24"><title>home-menu-more</title><path d="M0,0H24V24H0Z" fill="none"/><path d="M9.5,12h5" fill="none" stroke="#323232" stroke-linecap="round" stroke-linejoin="round" stroke-width="1.5"/><path d="M19.842,8.29908l-6-4.667a3,3,0,0,0-3.684,0l-6,4.667A3,3,0,0,0,3,10.66608V18a3,3,0,0,0,3,3H18a3,3,0,0,0,3-3V10.66608A3,3,0,0,0,19.842,8.29908Z" fill="none" stroke="#323232" stroke-linecap="round" stroke-linejoin="round" stroke-width="1.5"/><line x1="9.5" y1="16" x2="14.5" y2="16" fill="none" stroke="#323232" stroke-linecap="round" stroke-linejoin="round" stroke-width="1.5"/><path d="M0,0H24V24H0Z" fill="none"/></svg>