<?xml version="1.0" encoding="utf-8"?>
<!-- Generator: Adobe Illustrator 24.0.2, SVG Export Plug-In . SVG Version: 6.00 Build 0)  -->
<svg version="1.1" id="Layer_1" xmlns="http://www.w3.org/2000/svg" xmlns:xlink="http://www.w3.org/1999/xlink" x="0px" y="0px"
	 width="24px" height="24px" viewBox="0 0 24 24" enable-background="new 0 0 24 24" xml:space="preserve">
<g>
	<g>
		<path fill="none" stroke="#323232" stroke-width="1.5" stroke-linecap="round" stroke-linejoin="round" d="M11.997,17.5
			c-0.275,0-0.5,0.225-0.497,0.5c0,0.275,0.225,0.5,0.5,0.5s0.5-0.225,0.5-0.5C12.5,17.725,12.275,17.5,11.997,17.5"/>
		<path fill="none" stroke="#323232" stroke-width="1.5" stroke-linecap="round" stroke-linejoin="round" d="M11.997,11.5
			c-0.275,0-0.5,0.225-0.497,0.5c0,0.275,0.225,0.5,0.5,0.5c0.275,0,0.5-0.225,0.5-0.5C12.5,11.725,12.275,11.5,11.997,11.5"/>
		<path fill="none" stroke="#323232" stroke-width="1.5" stroke-linecap="round" stroke-linejoin="round" d="M11.997,5.5
			c-0.275,0-0.5,0.225-0.497,0.5c0,0.275,0.225,0.5,0.5,0.5s0.5-0.225,0.5-0.5C12.5,5.725,12.275,5.5,11.997,5.5"/>
	</g>
	<path fill="none" d="M0,0h24v24H0V0z"/>
</g>
</svg>
