<svg id="Layer_3" data-name="Layer 3" xmlns="http://www.w3.org/2000/svg" viewBox="0 0 24 24"><title>attachment-Link_1</title><path d="M18.019,12.019l1.73-1.73a4.27,4.27,0,1,0-6.038-6.038l-3.7,3.7a4.268,4.268,0,0,0,0,6.038L10,14a4.215,4.215,0,0,0,1.183.817" fill="none" stroke="#323232" stroke-linecap="round" stroke-linejoin="round" stroke-width="1.5"/><path d="M12.806,9.193a4.218,4.218,0,0,1,1.183.818,4.268,4.268,0,0,1,0,6.038l-3.7,3.7a4.27,4.27,0,0,1-6.038-6.038l1.73-1.73" fill="none" stroke="#323232" stroke-linecap="round" stroke-linejoin="round" stroke-width="1.5"/><path d="M0,0H24V24H0Z" fill="none"/></svg>