<svg id="notes-text-pin" xmlns="http://www.w3.org/2000/svg" width="24" height="24" viewBox="0 0 24 24">
  <path id="Path_31" data-name="Path 31" d="M24,24H0V0H24Z" fill="none"/>
  <path id="Path_32" data-name="Path 32" d="M20,8V5a2,2,0,0,0-2-2H5A2,2,0,0,0,3,5V19a2,2,0,0,0,2,2h5" fill="none" stroke="#323232" stroke-linecap="round" stroke-linejoin="round" stroke-width="1.5"/>
  <line id="Line_11" data-name="Line 11" x2="9" transform="translate(7 8)" fill="none" stroke="#323232" stroke-linecap="round" stroke-linejoin="round" stroke-width="1.5"/>
  <path id="Path_33" data-name="Path 33" d="M20.5,18.5h-6a.5.5,0,0,1-.429-.757l1.3-2.161a1,1,0,0,0,.123-.711L15.157,13.2a1,1,0,0,1,.981-1.2h2.725a1,1,0,0,1,.981,1.2l-.335,1.675a1,1,0,0,0,.123.711l1.3,2.161a.5.5,0,0,1-.429.757Z" fill="none" stroke="#323232" stroke-linecap="round" stroke-linejoin="round" stroke-width="1.5"/>
  <line id="Line_12" data-name="Line 12" y1="2.5" transform="translate(17.5 18.5)" fill="none" stroke="#323232" stroke-linecap="round" stroke-linejoin="round" stroke-width="1.5"/>
  <line id="Line_13" data-name="Line 13" x2="5" transform="translate(7 12)" fill="none" stroke="#323232" stroke-linecap="round" stroke-linejoin="round" stroke-width="1.5"/>
  <line id="Line_14" data-name="Line 14" x2="3" transform="translate(7 16)" fill="none" stroke="#323232" stroke-linecap="round" stroke-linejoin="round" stroke-width="1.5"/>
</svg>
