<svg id="star-circle" xmlns="http://www.w3.org/2000/svg" width="24" height="24" viewBox="0 0 24 24">
  <path id="Path_51" data-name="Path 51" d="M12,17h0a.317.317,0,0,0,.314-.275l.148-1.106a3.675,3.675,0,0,1,3.157-3.157l1.106-.148A.317.317,0,0,0,17,12h0a.317.317,0,0,0-.275-.314l-1.106-.148a3.675,3.675,0,0,1-3.157-3.157l-.148-1.106A.317.317,0,0,0,12,7h0a.317.317,0,0,0-.314.275l-.148,1.106a3.675,3.675,0,0,1-3.157,3.157l-1.106.148A.317.317,0,0,0,7,12H7a.317.317,0,0,0,.275.314l1.106.148a3.675,3.675,0,0,1,3.157,3.157l.148,1.106A.317.317,0,0,0,12,17Z" fill="none" stroke="#323232" stroke-linecap="round" stroke-linejoin="round" stroke-width="1.5"/>
  <path id="Path_52" data-name="Path 52" d="M18.718,5.282a9.5,9.5,0,1,1-13.436,0,9.5,9.5,0,0,1,13.436,0" fill="none" stroke="#323232" stroke-linecap="round" stroke-linejoin="round" stroke-width="1.5"/>
  <path id="Path_53" data-name="Path 53" d="M0,0H24V24H0Z" fill="none"/>
</svg>
