<svg id="images-pictures-copy" xmlns="http://www.w3.org/2000/svg" width="24" height="24" viewBox="0 0 24 24">
  <path id="Path_44" data-name="Path 44" d="M11.677,7.323A.25.25,0,1,1,11.5,7.25a.25.25,0,0,1,.177.073" fill="none" stroke="#323232" stroke-linecap="round" stroke-linejoin="round" stroke-width="1.5"/>
  <path id="Path_45" data-name="Path 45" d="M21,8.53A7.428,7.428,0,0,0,12.53,17" fill="none" stroke="#323232" stroke-linecap="round" stroke-linejoin="round" stroke-width="1.5"/>
  <path id="Path_46" data-name="Path 46" d="M7,7H6a3,3,0,0,0-3,3v8a3,3,0,0,0,3,3h8a3,3,0,0,0,3-3V17" fill="none" stroke="#323232" stroke-linecap="round" stroke-linejoin="round" stroke-width="1.5"/>
  <path id="Path_47" data-name="Path 47" d="M18,3H10A3,3,0,0,0,7,6v8a3,3,0,0,0,3,3h8a3,3,0,0,0,3-3V6A3,3,0,0,0,18,3Z" fill="none" stroke="#323232" stroke-linecap="round" stroke-linejoin="round" stroke-width="1.5"/>
  <rect id="Rectangle_9" data-name="Rectangle 9" width="24" height="24" fill="none"/>
</svg>
