<svg id="Layer_2" data-name="Layer 2" xmlns="http://www.w3.org/2000/svg" width="24" height="24" viewBox="0 0 24 24">
  <rect id="Rectangle_7" data-name="Rectangle 7" width="24" height="24" fill="none"/>
  <rect id="Rectangle_8" data-name="Rectangle 8" width="10" height="14" rx="2" transform="translate(13.374 4.851) rotate(22.5)" fill="none" stroke="#323232" stroke-linecap="round" stroke-linejoin="round" stroke-width="1.5"/>
  <path id="Path_28" data-name="Path 28" d="M16.648,11.494,17.2,13.45a.852.852,0,0,1-.4.96l-1.772,1a.709.709,0,0,1-1.048-.434l-.549-1.956a.852.852,0,0,1,.4-.96l1.772-1a.709.709,0,0,1,1.048.434Z" fill="none" stroke="#323232" stroke-linecap="round" stroke-linejoin="round" stroke-width="1.5"/>
  <path id="Path_29" data-name="Path 29" d="M7,6.353,3.235,7.913a2,2,0,0,0-1.082,2.613L5.98,19.765a2,2,0,0,0,2.613,1.082L12,19.436" fill="none" stroke="#323232" stroke-linecap="round" stroke-linejoin="round" stroke-width="1.5"/>
  <path id="Path_30" data-name="Path 30" d="M17,6.353V4.5a2,2,0,0,0-2-2H9a2,2,0,0,0-2,2v10a2,2,0,0,0,1.652,1.965" fill="none" stroke="#323232" stroke-linecap="round" stroke-linejoin="round" stroke-width="1.5"/>
</svg>
