<svg id="email-mail-edit" xmlns="http://www.w3.org/2000/svg" width="24" height="24" viewBox="0 0 24 24">
  <path id="Path_40" data-name="Path 40" d="M0,0H24V24H0Z" fill="none"/>
  <path id="Path_41" data-name="Path 41" d="M11,18H6a3,3,0,0,1-3-3V7A3,3,0,0,1,6,4H18a3,3,0,0,1,3,3v4" fill="none" stroke="#323232" stroke-linecap="round" stroke-linejoin="round" stroke-width="1.5"/>
  <path id="Path_42" data-name="Path 42" d="M20.961,6.615l-7.428,4.339a3,3,0,0,1-3.026,0L3.041,6.593" fill="none" stroke="#323232" stroke-linecap="round" stroke-linejoin="round" stroke-width="1.5"/>
  <path id="Path_43" data-name="Path 43" d="M17.1,20.725l4.11-4.11a1,1,0,0,0,0-1.414L19.8,13.793a1,1,0,0,0-1.414,0l-4.11,4.11a.94.94,0,0,0-.275.665V20.5a.5.5,0,0,0,.5.5h1.932a.94.94,0,0,0,.665-.275Z" fill="none" stroke="#323232" stroke-linecap="round" stroke-linejoin="round" stroke-width="1.5"/>
</svg>
