<svg id="Layer_3" data-name="Layer 3" xmlns="http://www.w3.org/2000/svg" viewBox="0 0 24 24"><title>package-box-update-loading</title><path d="M5.628,18.355A9,9,0,1,0,12,3" fill="none" stroke="#323232" stroke-linecap="round" stroke-linejoin="round" stroke-width="1.5"/><path id="Shape_3077" data-name="Shape 3077" d="M3.731,15.375a.05.05,0,0,0-.05.05.05.05,0,0,0,.05.05.05.05,0,1,0,0-.1" fill="none" stroke="#323232" stroke-linecap="round" stroke-linejoin="round" stroke-width="1.5"/><path id="Shape_3077-2" data-name="Shape 3077" d="M3.05,11.95A.05.05,0,1,0,3.1,12a.05.05,0,0,0-.05-.05" fill="none" stroke="#323232" stroke-linecap="round" stroke-linejoin="round" stroke-width="1.5"/><path id="Shape_3077-3" data-name="Shape 3077" d="M3.731,8.525a.05.05,0,0,0-.05.05.05.05,0,0,0,.05.05.05.05,0,1,0,0-.1" fill="none" stroke="#323232" stroke-linecap="round" stroke-linejoin="round" stroke-width="1.5"/><path id="Shape_3077-4" data-name="Shape 3077" d="M5.671,5.621a.051.051,0,0,0-.05.05.05.05,0,0,0,.05.05.05.05,0,0,0,.05-.05.05.05,0,0,0-.05-.05" fill="none" stroke="#323232" stroke-linecap="round" stroke-linejoin="round" stroke-width="1.5"/><path id="Shape_3077-5" data-name="Shape 3077" d="M8.575,3.681a.05.05,0,0,0-.05.05.05.05,0,1,0,.1,0,.05.05,0,0,0-.05-.05" fill="none" stroke="#323232" stroke-linecap="round" stroke-linejoin="round" stroke-width="1.5"/><path d="M8.307,13.471V10.532a1.044,1.044,0,0,1,.529-.906l2.655-1.492a1.037,1.037,0,0,1,1.018,0l2.655,1.492a1.041,1.041,0,0,1,.529.906v2.939a1.041,1.041,0,0,1-.529.9l-2.656,1.492a1.042,1.042,0,0,1-1.018,0L8.835,14.375A1.039,1.039,0,0,1,8.307,13.471Z" fill="none" stroke="#323232" stroke-linecap="round" stroke-linejoin="round" stroke-width="1.5"/><path d="M12,12v4" fill="none" stroke="#323232" stroke-linecap="round" stroke-linejoin="round" stroke-width="1.5"/><path d="M8.449,10.007,12,12l3.551-1.994" fill="none" stroke="#323232" stroke-linecap="round" stroke-linejoin="round" stroke-width="1.5"/><rect width="24" height="24" fill="none"/></svg>