<svg xmlns="http://www.w3.org/2000/svg" width="265" height="265" viewBox="0 0 265 265"><g transform="translate(16874 8840)"><rect width="265" height="265" rx="72" transform="translate(-16874 -8840)" fill="#fafafa"/><path d="M57.472,151.158h0A59.3,59.3,0,0,1,0,91.829V0H24.86A44.107,44.107,0,0,1,69,44.139V68.815A49.141,49.141,0,0,0,50.264,143.6a49.836,49.836,0,0,0,7.2,7.559Z" transform="translate(-16807.928 -8783.079)" fill="#0b0b0b"/><path d="M83.275,74.485a32.524,32.524,0,1,1-32.524,32.524A32.524,32.524,0,0,1,83.275,74.485" transform="translate(-16790.873 -8771.834)" fill="#0b0b0b"/></g></svg>