<svg xmlns="http://www.w3.org/2000/svg" width="170" height="169.999" viewBox="0 0 170 169.999">
  <style>
    .light-theme { fill: rgb(30, 30, 30); }
    .dark-theme { fill: rgb(245, 245, 245); }
    
    @media (prefers-color-scheme: dark) {
      .light-theme { display: none; }
    }
    
    @media (prefers-color-scheme: light) {
      .dark-theme { display: none; }
    }
  </style>
  
  <!-- Dark icon for light theme -->
  <path class="light-theme" d="M-5839,8853h-106a31.791,31.791,0,0,1-12.456-2.515,31.876,31.876,0,0,1-10.171-6.859,31.878,31.878,0,0,1-6.858-10.171A31.8,31.8,0,0,1-5977,8821V8715a31.794,31.794,0,0,1,2.515-12.455,31.921,31.921,0,0,1,6.858-10.172,31.863,31.863,0,0,1,10.171-6.856A31.773,31.773,0,0,1-5945,8683h106a31.78,31.78,0,0,1,12.458,2.515,31.868,31.868,0,0,1,10.171,6.856,31.943,31.943,0,0,1,6.859,10.172A31.8,31.8,0,0,1-5807,8715v106a31.808,31.808,0,0,1-2.513,12.456,31.879,31.879,0,0,1-6.859,10.171,31.87,31.87,0,0,1-10.171,6.859A31.8,31.8,0,0,1-5839,8853Zm-93.4-133.213v59.587a38.2,38.2,0,0,0,2.915,14.729,38.188,38.188,0,0,0,7.967,12.1,38.272,38.272,0,0,0,11.851,8.312,37.972,37.972,0,0,0,14.558,3.354a32.479,32.479,0,0,1-4.675-4.905,32.213,32.213,0,0,1-3.555-5.808,31.857,31.857,0,0,1-2.262-6.539,32.191,32.191,0,0,1-.791-7.09,31.7,31.7,0,0,1,5.237-17.5,32.2,32.2,0,0,1,5.932-6.738,32.189,32.189,0,0,1,7.6-4.848v-16.013a28.276,28.276,0,0,0-2.253-11.149,28.383,28.383,0,0,0-6.137-9.1,28.389,28.389,0,0,0-9.1-6.139,28.342,28.342,0,0,0-11.1-2.251H-5932.4Zm65.108,55.63a20.966,20.966,0,0,0-8.215,1.658,21.045,21.045,0,0,0-6.709,4.523,21.038,21.038,0,0,0-4.522,6.708,20.968,20.968,0,0,0-1.659,8.215a20.98,20.98,0,0,0,1.659,8.216a21.051,21.051,0,0,0,4.522,6.708a21.045,21.045,0,0,0,6.709,4.523a20.966,20.966,0,0,0,8.215,1.658a20.971,20.971,0,0,0,8.216-1.658,21.032,21.032,0,0,0,6.708-4.523a21.051,21.051,0,0,0,4.522-6.708a20.992,20.992,0,0,0,1.658-8.216a20.983,20.983,0,0,0-1.658-8.215a21.038,21.038,0,0,0-4.522-6.708a21.032,21.032,0,0,0-6.708-4.523A20.971,20.971,0,0,0-5867.292,8775.416Z" transform="translate(5977.001 -8683)"/>
  
  <!-- Light icon for dark theme -->
  <path class="dark-theme" d="M-5839,8853h-106a31.791,31.791,0,0,1-12.456-2.515,31.876,31.876,0,0,1-10.171-6.859,31.878,31.878,0,0,1-6.858-10.171A31.8,31.8,0,0,1-5977,8821V8715a31.794,31.794,0,0,1,2.515-12.455,31.921,31.921,0,0,1,6.858-10.172,31.863,31.863,0,0,1,10.171-6.856A31.773,31.773,0,0,1-5945,8683h106a31.78,31.78,0,0,1,12.458,2.515,31.868,31.868,0,0,1,10.171,6.856,31.943,31.943,0,0,1,6.859,10.172A31.8,31.8,0,0,1-5807,8715v106a31.808,31.808,0,0,1-2.513,12.456,31.879,31.879,0,0,1-6.859,10.171,31.87,31.87,0,0,1-10.171,6.859A31.8,31.8,0,0,1-5839,8853Zm-93.4-133.213v59.587a38.2,38.2,0,0,0,2.915,14.729,38.188,38.188,0,0,0,7.967,12.1,38.272,38.272,0,0,0,11.851,8.312,37.972,37.972,0,0,0,14.558,3.354a32.479,32.479,0,0,1-4.675-4.905,32.213,32.213,0,0,1-3.555-5.808,31.857,31.857,0,0,1-2.262-6.539,32.191,32.191,0,0,1-.791-7.09,31.7,31.7,0,0,1,5.237-17.5,32.2,32.2,0,0,1,5.932-6.738,32.189,32.189,0,0,1,7.6-4.848v-16.013a28.276,28.276,0,0,0-2.253-11.149,28.383,28.383,0,0,0-6.137-9.1a28.389,28.389,0,0,0-9.1-6.139a28.342,28.342,0,0,0-11.1-2.251H-5932.4Zm65.108,55.63a20.966,20.966,0,0,0-8.215,1.658,21.045,21.045,0,0,0-6.709,4.523a21.038,21.038,0,0,0-4.522,6.708a20.968,20.968,0,0,0-1.659,8.215a20.98,20.98,0,0,0,1.659,8.216a21.051,21.051,0,0,0,4.522,6.708a21.045,21.045,0,0,0,6.709,4.523a20.966,20.966,0,0,0,8.215,1.658a20.971,20.971,0,0,0,8.216-1.658a21.032,21.032,0,0,0,6.708-4.523a21.051,21.051,0,0,0,4.522-6.708a20.992,20.992,0,0,0,1.658-8.216a20.983,20.983,0,0,0-1.658-8.215a21.038,21.038,0,0,0-4.522-6.708a21.032,21.032,0,0,0-6.708-4.523A20.971,20.971,0,0,0-5867.292,8775.416Z" transform="translate(5977.001 -8683)"/>
</svg>